<svg width="2704" height="2790" viewBox="0 0 2704 2790" fill="none" xmlns="http://www.w3.org/2000/svg">
<path d="M789.808 2177.41C738.189 2177.41 697.083 2162.59 668.615 2132.67C598.906 2059.23 613.941 1900.84 709.852 1698.25C897.017 1302.68 1336.44 843.706 1689.24 675.155C1850.34 598.157 1973.26 591.842 2035.26 657.175C2104.97 730.606 2089.93 889 1994.01 1091.59C1806.84 1487.16 1367.42 1946.14 1014.62 2114.69C927.34 2156.41 851.135 2177.41 789.808 2177.41ZM1692.7 682.569C1341.34 850.43 903.698 1307.63 717.174 1701.82C622.851 1901.25 607.288 2056.21 674.469 2126.9C734.068 2189.63 853.799 2182.63 1011.58 2107.27C1362.88 1939.41 1800.58 1482.22 1987.09 1088.02C2081.42 888.585 2096.98 733.629 2029.8 662.94C1970.18 600.215 1850.62 607.215 1692.7 682.569Z" fill="white" fill-opacity="0.02"/>
<path d="M752.689 2188.12C692.291 2188.12 645.33 2170.27 614.998 2134.45C543.962 2050.86 570.033 1878.19 686.572 1660.92C906.451 1250.94 1382.88 796.903 1748.57 648.942C1909.11 583.884 2030.07 586.217 2088.85 655.531C2159.91 739.12 2133.84 911.782 2017.13 1129.06C1797.26 1539.04 1320.88 1993.08 955.182 2141.04C877.624 2172.33 809.222 2188.12 752.689 2188.12ZM1951.3 609.823C1895.84 609.823 1828.51 625.331 1751.61 656.491C1387.36 803.903 912.852 1256.29 693.622 1664.77C578.817 1878.88 552.339 2048.11 620.983 2128.96C677.391 2195.39 795.126 2196.9 952.379 2133.22C1316.63 1985.8 1791.14 1533.41 2010.36 1124.94C2125.15 910.823 2151.64 741.588 2083.01 660.742C2054.14 626.844 2009.28 609.823 1951.3 609.823Z" fill="white" fill-opacity="0.02"/>
<path d="M718.764 2196.22C647.593 2196.22 593.713 2174.53 561.255 2131.7C489.284 2036.72 527.731 1849.51 666.749 1618.1C920.422 1195.62 1433.43 750.645 1810.15 626.154C1969.24 573.586 2087.4 584.842 2142.86 657.999C2214.86 752.978 2176.41 940.193 2037.36 1171.61C1783.66 1594.08 1270.7 2039.06 893.977 2163.55C828.006 2185.37 769.052 2196.22 718.764 2196.22ZM1985.36 601.724C1935.88 601.724 1877.85 612.43 1812.54 633.978C1437.26 758.059 926.309 1201.39 673.402 1622.49C536.244 1850.74 497.666 2034.53 567.506 2126.76C620.718 2197.04 735.79 2207.33 891.454 2155.86C1266.73 2031.78 1777.68 1588.45 2030.59 1167.35C2167.76 939.094 2206.31 755.311 2136.46 663.08C2105.62 622.312 2053.86 601.724 1985.36 601.724Z" fill="white" fill-opacity="0.02"/>
<path d="M686.979 2202.39C603.435 2202.39 542.374 2176.04 507.519 2124.02C435.418 2016.27 487.433 1814.37 650.395 1569.92C938.793 1137.29 1487.45 705.626 1873.38 607.625C2032.33 567.272 2144.09 587.316 2196.6 665.688C2268.74 773.432 2216.69 975.331 2053.72 1219.79C1765.36 1652.41 1216.7 2084.07 830.771 2182.08C777.307 2195.67 729.281 2202.39 686.979 2202.39ZM2017.14 595.549C1975.51 595.549 1928.04 602.274 1875.2 615.723C1490.91 713.315 944.4 1143.61 656.913 1574.72C495.946 1816.15 443.93 2014.76 514.037 2119.49C564.455 2194.84 673.411 2213.78 828.902 2174.25C1213.24 2076.67 1759.75 1646.37 2047.23 1215.25C2208.19 973.822 2260.19 775.216 2190.11 670.489C2156.7 620.664 2097.92 595.549 2017.14 595.549Z" fill="white" fill-opacity="0.02"/>
<path d="M661.967 2205.82C561.925 2205.82 490.889 2173.7 454.17 2110.98C382.731 1989.1 449.782 1772.37 638.152 1516.25C961.965 1076.08 1545.01 662.256 1937.76 593.766C2093.39 566.588 2201.27 596.099 2249.82 678.723C2321.25 800.606 2254.21 1017.33 2065.87 1273.45C1742.04 1713.63 1158.99 2127.45 766.265 2195.94C728.747 2202.53 693.897 2205.82 661.967 2205.82ZM2042.04 592.117C2010.64 592.117 1976.16 595.275 1938.93 601.864C1547.95 670.08 967.151 1082.39 644.273 1521.2C460.692 1770.73 392.048 1989.65 460.823 2106.72C507.517 2186.33 612.745 2214.47 764.933 2187.98C1156.05 2119.76 1736.71 1707.45 2059.61 1268.65C2243.18 1019.12 2311.82 800.196 2243.04 683.115C2207.81 622.863 2139.13 592.117 2042.04 592.117Z" fill="white" fill-opacity="0.02"/>
<path d="M644.142 2207.33C523.346 2207.33 440.068 2167.94 401.49 2091.76C332.981 1956.29 418.52 1718.98 630.438 1456.82C990.278 1011.84 1605.94 620.665 2003.07 584.978C2154.6 571.394 2258.09 610.373 2302.38 697.803C2370.87 833.275 2285.37 1070.59 2073.44 1332.75C1713.58 1777.73 1097.93 2168.9 700.811 2204.59C681.122 2206.51 662.232 2207.33 644.142 2207.33ZM2003.87 593.216C1608.6 628.763 995.231 1018.57 636.558 1462.18C426.766 1721.59 341.494 1955.61 408.54 2088.06C451.244 2172.33 552.08 2209.94 700.147 2196.63C1095.4 2161.08 1708.77 1771.28 2067.46 1327.66C2277.24 1068.26 2362.51 834.234 2295.46 701.785C2252.76 617.512 2151.93 579.902 2003.87 593.216Z" fill="white" fill-opacity="0.02"/>
<path d="M635.084 2207.74C634.953 2207.74 634.953 2207.74 634.953 2207.74C488.217 2207.74 389.643 2158.75 350.134 2065.96C285.078 1913.47 388.844 1661.47 627.903 1391.76C1023.82 945.135 1670.22 581.825 2068.9 581.825C2069.04 581.825 2069.04 581.825 2069.04 581.825C2215.75 581.825 2314.33 630.821 2353.86 723.607C2418.9 876.096 2315.13 1128.23 2076.09 1397.8C1680.17 1844.43 1033.77 2207.74 635.084 2207.74ZM2068.76 590.194C1672.09 590.194 1028.35 952.275 633.621 1397.53C396.829 1664.63 293.461 1913.47 357.316 2062.94C395.497 2152.43 491.544 2199.78 634.953 2199.78H635.084C1031.81 2199.78 1675.54 1837.7 2070.25 1392.45C2307.04 1125.35 2410.39 876.51 2346.52 727.04C2308.35 637.551 2212.29 590.194 2068.9 590.194C2069.04 590.194 2068.9 590.194 2068.76 590.194Z" fill="white" fill-opacity="0.02"/>
<path d="M635.633 2207.88C612.618 2207.88 590.402 2206.78 568.984 2204.72C427.435 2190.72 334.448 2131.43 300.257 2032.88C240.663 1861.72 364.248 1595.72 630.84 1321.35C1063.08 876.37 1737.93 546.138 2135.16 585.117C2276.73 599.116 2369.71 658.409 2403.91 756.96C2463.48 928.118 2339.9 1194.12 2073.3 1468.49C1664.34 1889.45 1038.17 2207.74 635.633 2207.88ZM2068.12 590.058C1667.43 590.058 1043.92 907.39 636.297 1326.98C371.961 1599.02 249.175 1861.86 307.573 2030C340.699 2125.25 431.294 2182.9 569.648 2196.49C964.773 2235.33 1636.68 1906.19 2067.6 1462.73C2331.91 1190.68 2454.7 927.843 2396.29 759.703C2363.17 664.449 2272.57 606.805 2134.23 593.216C2112.92 591.157 2090.87 590.058 2068.12 590.058Z" fill="white" fill-opacity="0.02"/>
<path d="M647.067 2208.43C595.719 2208.43 547.693 2204.04 503.391 2194.84C367.434 2166.71 280.564 2096.29 252.362 1991.16C201.014 1799.82 345.751 1520.92 639.484 1245.04C1107.74 805.412 1808.06 513.745 2200.34 594.86C2336.3 622.998 2423.15 693.412 2451.38 798.548C2502.72 989.88 2357.98 1268.78 2064.23 1544.67C1648.92 1934.75 1050.83 2208.43 647.067 2208.43ZM2056.39 589.51C1654.76 589.51 1059.05 862.237 644.941 1251.08C353.464 1524.76 209.527 1800.65 260.076 1988.96C287.483 2090.94 372.223 2159.29 505.124 2186.74C549.025 2195.8 596.779 2200.19 647.73 2200.19C1049.34 2200.19 1645.09 1927.47 2059.19 1538.63C2350.69 1264.94 2494.59 989.06 2444.04 800.746C2416.66 698.762 2331.91 630.412 2199.03 602.959C2155.11 593.901 2107.22 589.51 2056.39 589.51Z" fill="white" fill-opacity="0.02"/>
<path d="M671.677 2210.76C585.605 2210.76 506.981 2200.06 439.005 2177.82C308.767 2135 228.68 2052.78 207.393 1939.96C167.352 1727.22 334.707 1436.92 654.782 1163.51C1158.43 733.214 1880.8 485.746 2264.86 612.021C2395.12 654.842 2475.2 737.056 2496.46 849.881C2536.5 1062.63 2369.28 1352.92 2049.09 1626.33C1634.67 1980.59 1071.95 2210.76 671.677 2210.76ZM2031.81 587.036C1633.5 587.036 1073.16 816.667 659.968 1169.69C342.154 1441.31 175.865 1728.59 215.378 1938.31C235.997 2047.98 314.219 2128.13 441.532 2170C823.477 2295.59 1542.34 2048.8 2044.14 1620.02C2361.99 1348.39 2528.28 1061.12 2488.75 851.39C2468.14 741.722 2389.93 661.566 2262.61 619.705C2195.15 597.607 2117.21 587.036 2031.81 587.036Z" fill="white" fill-opacity="0.02"/>
<path d="M710.92 2216.53C582.677 2216.53 468.138 2196.08 376.212 2153.11C251.697 2094.78 179.058 1999.53 166.158 1877.65C141.279 1642.94 332.181 1343.45 676.865 1076.49C1214.96 659.648 1955.56 462.411 2327.65 636.726C2452.17 695.06 2524.82 790.314 2537.72 912.196C2562.57 1146.9 2371.67 1446.39 2027 1713.35C1621.91 2027.12 1101.9 2216.53 710.92 2216.53ZM1992.56 581.276C1603.55 581.276 1085.54 770.135 681.654 1083.08C339.231 1348.25 149.525 1645 174.138 1876.82C186.777 1995.69 257.813 2088.61 379.538 2145.71C749.232 2318.92 1486.23 2122.09 2022.32 1706.9C2364.75 1441.72 2554.49 1144.98 2529.87 913.155C2517.2 794.295 2446.19 701.37 2324.48 644.275C2233.32 601.449 2119.88 581.276 1992.56 581.276Z" fill="white" fill-opacity="0.02"/>
<path d="M765.594 2227.24C587.195 2227.24 430.75 2192.78 315.813 2120.04C197.148 2044.96 132.896 1935.29 129.967 1802.71C124.379 1546.04 339.759 1240.23 706.262 984.394C1277.61 585.668 2032.18 444.432 2388.2 669.531C2506.83 744.606 2571.12 854.273 2574.01 986.862C2579.62 1243.53 2364.23 1549.33 1997.74 1805.17C1610.88 2075.29 1139.83 2227.24 765.594 2227.24ZM1938.12 570.43C1565.66 570.43 1096.42 721.959 710.649 991.254C346.543 1245.45 132.364 1548.65 137.816 1802.57C140.61 1932.14 203.535 2039.61 319.934 2113.18C673.533 2336.9 1424.23 2195.67 1993.35 1798.59C2357.46 1544.39 2571.63 1241.19 2566.16 987.272C2563.36 857.705 2500.47 750.236 2384.04 676.665C2270.18 604.608 2115.06 570.43 1938.12 570.43Z" fill="white" fill-opacity="0.02"/>
<path d="M834.647 2245.08C598.644 2245.08 393.776 2190.86 258.348 2078.45C145.537 1984.84 90.9934 1858.71 100.305 1713.49C118.265 1436.23 358.655 1127.41 743.114 887.766C1346.02 511.821 2109.74 432.628 2445.54 711.257C2558.32 804.862 2612.89 931.001 2603.55 1076.22C2585.61 1353.47 2345.22 1662.29 1960.75 1901.94C1600.89 2126.35 1183.85 2245.08 834.647 2245.08ZM1869.36 552.589C1521.74 552.589 1106.15 671.039 747.375 894.766C365.038 1133.18 126.114 1439.39 108.29 1714.04C98.9781 1856.37 152.723 1980.17 263.403 2072C596.78 2348.7 1356.39 2269.23 1956.77 1894.94C2339.1 1656.53 2578.04 1350.31 2595.84 1075.67C2605.14 933.335 2551.41 809.529 2440.72 717.707C2306.49 606.391 2103.34 552.589 1869.36 552.589Z" fill="white" fill-opacity="0.02"/>
<path d="M915.38 2271.71C615.802 2271.71 356.125 2190.73 204.736 2027.8C98.1766 1913.2 54.9398 1768.12 79.6839 1608.49C125.317 1313.12 390.316 1005.94 788.343 786.747C1420.91 438.53 2188.37 427.412 2499.4 762.037C2605.98 876.645 2649.19 1021.72 2624.43 1181.35C2578.83 1476.73 2313.82 1783.9 1915.8 2003.1C1591.17 2181.8 1231.08 2271.71 915.38 2271.71ZM1788.9 525.96C1474.5 525.96 1115.58 615.589 791.936 793.881C396.035 1011.84 132.634 1316.82 87.4023 1609.72C63.0553 1766.88 105.629 1909.49 210.324 2022.18C518.957 2354.33 1282.29 2342.53 1911.92 1995.96C2307.84 1778 2571.21 1473.02 2616.44 1180.12C2640.83 1022.96 2598.22 880.352 2493.56 767.667C2343.63 606.256 2086.19 525.96 1788.9 525.96Z" fill="white" fill-opacity="0.02"/>
<path d="M1002.38 2308.9C635.359 2308.9 316.349 2192.09 155.517 1967.68C56.0082 1828.92 26.4753 1662.29 70.1091 1485.92C146.734 1176.55 435.15 875.82 841.703 681.47C1501.28 366.195 2267.01 429.195 2548.46 821.883C2647.98 960.647 2677.51 1127.27 2633.87 1303.65C2557.25 1613.02 2268.83 1913.74 1862.3 2108.1C1579.63 2243.29 1277.48 2308.9 1002.38 2308.9ZM1702 488.764C1427.97 488.764 1126.8 554.237 845.02 688.879C440.602 882.135 153.784 1180.94 77.823 1487.98C34.7218 1661.88 63.8577 1826.04 161.9 1962.88C441.266 2352.69 1202.58 2414.59 1858.98 2100.82C2263.41 1907.57 2550.24 1608.76 2626.16 1301.72C2669.29 1127.82 2640.13 963.665 2542.11 826.824C2382.74 604.472 2066.24 488.764 1702 488.764Z" fill="white" fill-opacity="0.02"/>
<path d="M1089.37 2358.04C653.981 2358.04 273.508 2194.43 111.611 1897.96C20.4838 1731.06 7.84571 1540 74.8921 1345.51C184.512 1027.63 494.34 738.845 903.79 573.038C1587.62 296.059 2345.22 439.079 2592.38 891.883C2683.49 1058.78 2696.15 1249.71 2629.1 1444.33C2519.49 1762.21 2209.63 2051 1800.16 2216.8C1564.07 2312.47 1319.01 2358.04 1089.37 2358.04ZM1615.14 439.765C1386.34 439.765 1142.21 485.198 906.734 580.587C499.396 745.57 191.16 1032.57 82.3441 1348.25C16.092 1540.55 28.5997 1729.27 118.526 1893.98C363.972 2343.35 1117.08 2484.86 1797.4 2209.26C2204.72 2044.27 2512.95 1757.27 2621.77 1441.59C2688.02 1249.29 2675.54 1060.57 2585.6 895.865C2425.02 602 2047.5 439.765 1615.14 439.765Z" fill="white" fill-opacity="0.02"/>
<path d="M1170.02 2419.53C667.417 2419.53 226.551 2195.8 73.83 1818.08C-6.7845 1618.78 1.06487 1400.41 96.7145 1186.84C239.722 867.177 568.044 595.959 974.998 461.45C1679.66 228.392 2422.36 457.195 2630.41 971.628C2711.05 1170.92 2703.21 1389.29 2607.57 1602.86C2464.55 1922.53 2136.23 2193.74 1729.28 2328.26C1541.83 2390.29 1351.86 2419.53 1170.02 2419.53ZM1534.26 378.274C1353.07 378.274 1163.9 407.509 977.101 469.274C572.3 603.233 245.842 872.667 103.629 1190.27C9.04494 1401.78 1.06469 1617.69 80.8802 1814.92C232.405 2189.63 670.211 2411.43 1169.5 2411.43C1350.69 2411.43 1539.82 2382.19 1726.62 2320.43C2131.42 2186.47 2457.91 1917.04 2600.09 1599.43C2694.7 1387.92 2702.55 1172.02 2622.84 974.781C2471.32 600.215 2033.54 378.274 1534.26 378.274Z" fill="white" fill-opacity="0.02"/>
<path d="M1239.21 2493.78C672.077 2493.78 175.337 2194.98 42.8372 1727.9C-24.3399 1491.13 8.65043 1243.39 138.09 1011.16C315.952 692.312 650.127 450.471 1055.08 347.529C1776.89 164.02 2497.4 484.373 2661.16 1061.67C2728.34 1298.43 2695.36 1546.18 2565.94 1778.41C2388.21 2097.26 2053.86 2339.1 1648.92 2442.04C1511.09 2477.18 1373.17 2493.78 1239.21 2493.78ZM1464.93 304.02C1331.54 304.02 1194.36 320.627 1056.95 355.49C654.117 457.882 321.675 698.352 145.009 1015.27C16.6307 1245.45 -16.0936 1491 50.5556 1725.57C181.99 2189.08 675.67 2485.55 1239.21 2485.55C1372.61 2485.55 1509.78 2468.94 1647.19 2434.08C2050.03 2331.68 2382.46 2091.21 2559.12 1774.29C2687.51 1544.12 2720.21 1298.57 2653.59 1064C2522.02 600.625 2028.45 304.02 1464.93 304.02Z" fill="white" fill-opacity="0.02"/>
<path d="M1293.6 2580.66C664.895 2580.66 120.133 2190.45 19.6941 1627.43C-29.3969 1352.37 35.1264 1065.78 201.28 820.785C408.544 515.119 752.434 300.588 1144.61 232.235C1879.22 104.039 2569.91 521.159 2684.34 1162.27C2733.39 1437.33 2668.87 1723.78 2502.73 1968.92C2295.47 2274.59 1951.59 2489.12 1559.41 2557.47C1469.89 2573.12 1380.88 2580.66 1293.6 2580.66ZM1410.41 217.275C1323.55 217.275 1235.06 224.824 1145.96 240.334C755.756 308.412 413.866 521.704 207.798 825.586C42.8403 1068.8 -21.1458 1353.06 27.5434 1626.06C127.314 2184.96 668.754 2572.57 1293.6 2572.57C1380.46 2572.57 1468.95 2565.02 1558.05 2549.51C1948.27 2481.43 2290.14 2268.13 2496.23 1964.25C2661.16 1721.04 2725.17 1436.78 2676.49 1163.79C2576.83 604.747 2035.41 217.275 1410.41 217.275Z" fill="white" fill-opacity="0.02"/>
<path d="M1331.54 2679.49C643.607 2679.49 61.4627 2180.43 5.19046 1516.39C-54.5439 811.312 500.997 183.097 1243.7 115.98C1603.41 83.4505 1952.89 185.98 2227.76 404.49C2502.72 622.997 2670.08 931.546 2699.09 1273.31C2728.06 1614.94 2615.13 1948.74 2381.15 2213.37C2147.26 2477.86 1820.25 2641.33 1460.54 2673.72C1417.18 2677.57 1374.1 2679.49 1331.54 2679.49ZM1373.96 118.313C1330.97 118.313 1287.76 120.235 1244.26 124.215C505.922 190.921 -46.4284 815.154 13.0349 1515.7C69.0455 2175.49 647.733 2671.25 1331.54 2671.25C1373.96 2671.25 1416.66 2669.33 1459.74 2665.49C1817.49 2633.23 2142.59 2470.59 2375.17 2207.74C2607.71 1944.9 2719.84 1613.29 2691.1 1274C2662.37 934.703 2496.09 628.213 2222.81 410.941C1982.7 220.156 1685.22 118.313 1373.96 118.313Z" fill="white" fill-opacity="0.02"/>
<path d="M1352 2789.84C606.491 2789.84 0 2164.1 0 1394.92C0 625.745 606.491 0 1352 0C2097.5 0 2704 625.745 2704 1394.92C2704 2164.1 2097.5 2789.84 1352 2789.84ZM1352 8.09798C610.883 8.09798 7.84929 630.276 7.84929 1394.92C7.84929 2159.56 610.883 2781.74 1352 2781.74C2093.11 2781.74 2696.15 2159.56 2696.15 1394.92C2696.15 630.137 2093.11 8.09798 1352 8.09798Z" fill="white" fill-opacity="0.02"/>
</svg>
