<svg width="1078" height="290" viewBox="0 0 1078 290" fill="none" xmlns="http://www.w3.org/2000/svg">
<path d="M80.9961 40C80.9961 17.9086 98.9047 0 120.996 0H974.505C993.4 0 1008.72 15.3179 1008.72 34.2135C1008.72 43.1209 1008.72 57.0225 1008.72 57.0225V145V250C1008.72 272.091 990.81 290 968.718 290H120.996C98.9047 290 80.9961 272.091 80.9961 250V40Z" fill="white"/>
<path d="M1053.88 19.9778H884.904C878.563 19.9778 873.422 25.1184 873.422 31.4597C873.422 37.801 878.563 42.9416 884.904 42.9416H1053.88C1060.22 42.9416 1065.36 37.801 1065.36 31.4597C1065.36 25.1184 1060.22 19.9778 1053.88 19.9778Z" fill="white"/>
<path d="M229.123 106.586H60.1446C53.8033 106.586 48.6627 111.727 48.6627 118.068C48.6627 124.409 53.8033 129.55 60.1446 129.55H229.123C235.464 129.55 240.605 124.409 240.605 118.068C240.605 111.727 235.464 106.586 229.123 106.586Z" fill="white"/>
<path d="M203.321 154.022H34.6586C28.43 154.022 23.3808 159.071 23.3808 165.3C23.3808 171.528 28.43 176.578 34.6586 176.578H203.321C209.55 176.578 214.599 171.528 214.599 165.3C214.599 159.071 209.55 154.022 203.321 154.022Z" fill="white"/>
<path d="M1021.5 66.3779H873.976C867.214 66.3779 861.732 71.8599 861.732 78.6223V78.6224C861.732 85.3848 867.214 90.8668 873.976 90.8668H1021.5C1028.26 90.8668 1033.74 85.3848 1033.74 78.6223C1033.74 71.8599 1028.26 66.3779 1021.5 66.3779Z" fill="white"/>
<path d="M1062.53 239.089H932.31C923.768 239.089 916.843 246.014 916.843 254.556C916.843 263.098 923.768 270.022 932.31 270.022H1062.53C1071.08 270.022 1078 263.098 1078 254.556C1078 246.014 1071.08 239.089 1062.53 239.089Z" fill="white"/>
<path d="M1025.5 42.749H981.869C975.01 42.749 969.449 48.3098 969.449 55.1693C969.449 62.0289 975.01 67.5896 981.869 67.5896H1025.5C1032.36 67.5896 1037.92 62.0289 1037.92 55.1693C1037.92 48.3098 1032.36 42.749 1025.5 42.749Z" fill="#181A1A"/>
<path d="M104.658 24.4891H23.1005C16.3381 24.4891 10.8561 29.9711 10.8561 36.7335V36.7336C10.8561 43.496 16.3381 48.978 23.1005 48.978H104.658C111.42 48.978 116.902 43.496 116.902 36.7336V36.7335C116.902 29.9711 111.42 24.4891 104.658 24.4891Z" fill="#181A1A"/>
<path d="M210.873 6.10352e-05H78.1046C71.401 6.10352e-05 65.9666 5.43443 65.9666 12.1381C65.9666 18.8417 71.401 24.2761 78.1046 24.2761H210.873C217.576 24.2761 223.011 18.8417 223.011 12.1381C223.011 5.43443 217.576 6.10352e-05 210.873 6.10352e-05Z" fill="white"/>
<path d="M210.873 48.748H78.1046C71.401 48.748 65.9666 54.1824 65.9666 60.886C65.9666 67.5896 71.401 73.024 78.1046 73.024H210.873C217.576 73.024 223.011 67.5896 223.011 60.886C223.011 54.1824 217.576 48.748 210.873 48.748Z" fill="white"/>
<path d="M131.379 129.533H23.1005C16.3381 129.533 10.8561 135.015 10.8561 141.777V141.778C10.8561 148.54 16.3381 154.022 23.1005 154.022H131.379C138.141 154.022 143.623 148.54 143.623 141.777C143.623 135.015 138.141 129.533 131.379 129.533Z" fill="#181A1A"/>
<path d="M1008.83 216.056H976.827C970.446 216.056 965.273 221.229 965.273 227.61C965.273 233.991 970.446 239.164 976.827 239.164H1008.83C1015.21 239.164 1020.38 233.991 1020.38 227.61C1020.38 221.229 1015.21 216.056 1008.83 216.056Z" fill="#181A1A"/>
<path d="M77.6863 73.0895H15C6.71573 73.0895 0 79.8052 0 88.0895V91.6871C0 99.9714 6.71573 106.687 15 106.687H77.6863C85.9706 106.687 92.6863 99.9714 92.6863 91.6871V88.0895C92.6863 79.8052 85.9706 73.0895 77.6863 73.0895Z" fill="#181A1A"/>
<path d="M987.819 113.083C987.819 100.401 998.1 90.1196 1010.78 90.1196C1023.46 90.1196 1033.74 100.401 1033.74 113.083V204.647C1033.74 217.329 1023.46 227.61 1010.78 227.61C998.1 227.61 987.819 217.329 987.819 204.647V113.083Z" fill="#181A1A"/>
</svg>
